<svg width="18" height="18" viewBox="0 0 18 18" fill="none" xmlns="http://www.w3.org/2000/svg">
<path d="M9 10.454L1.8155 17.6385C1.6025 17.8512 1.3665 17.9512 1.1075 17.9385C0.8485 17.9255 0.612667 17.8127 0.4 17.6C0.187333 17.3873 0.0809997 17.145 0.0809997 16.873C0.0809997 16.6013 0.187333 16.359 0.4 16.146L7.546 9L0.3615 1.8655C0.148834 1.6525 0.0488338 1.41017 0.0615005 1.1385C0.0745005 0.866834 0.187333 0.624499 0.4 0.411499C0.612667 0.198832 0.855 0.0924988 1.127 0.0924988C1.39867 0.0924988 1.641 0.198832 1.854 0.411499L9 7.596L16.1345 0.411499C16.3475 0.198832 16.5835 0.0924988 16.8425 0.0924988C17.1015 0.0924988 17.3373 0.198832 17.55 0.411499C17.7707 0.632166 17.881 0.876334 17.881 1.144C17.881 1.412 17.7707 1.6525 17.55 1.8655L10.404 9L17.5885 16.1845C17.8012 16.3975 17.9075 16.6335 17.9075 16.8925C17.9075 17.1515 17.8012 17.3873 17.5885 17.6C17.3678 17.8207 17.1237 17.931 16.856 17.931C16.588 17.931 16.3475 17.8207 16.1345 17.6L9 10.454Z" fill="white"/>
</svg>
