<svg width="19" height="20" viewBox="0 0 19 20" fill="none" xmlns="http://www.w3.org/2000/svg">
<path d="M16.7717 10.6667H1.33333C1.14355 10.6667 0.984997 10.603 0.857664 10.4757C0.730331 10.3484 0.666664 10.1898 0.666664 10C0.666664 9.81025 0.730331 9.65169 0.857664 9.52436C0.984997 9.39702 1.14355 9.33336 1.33333 9.33336H16.7717L9.52066 2.08202C9.39066 1.95225 9.32266 1.79925 9.31666 1.62302C9.31066 1.44702 9.38122 1.28547 9.52833 1.13836C9.67522 0.99658 9.83244 0.924358 10 0.921691C10.1676 0.919246 10.3248 0.991469 10.4717 1.13836L18.5793 9.24602C18.6958 9.36247 18.7774 9.48136 18.8243 9.60269C18.8714 9.72402 18.895 9.85647 18.895 10C18.895 10.1436 18.8714 10.276 18.8243 10.3974C18.7774 10.5187 18.6958 10.6376 18.5793 10.754L10.4717 18.8617C10.347 18.9864 10.1953 19.053 10.0167 19.0617C9.838 19.0701 9.67522 19.0035 9.52833 18.8617C9.38122 18.7146 9.30766 18.556 9.30766 18.386C9.30766 18.2158 9.38122 18.0572 9.52833 17.9104L16.7717 10.6667Z" fill="#3DCFB6"/>
</svg>
