<svg width="11" height="11" viewBox="0 0 11 11" fill="none" xmlns="http://www.w3.org/2000/svg">
<path d="M9.19835 1.85859L0.921055 10.128C0.805638 10.2432 0.681471 10.2961 0.548555 10.2865C0.415499 10.2769 0.291263 10.2144 0.175846 10.099C0.0605686 9.98359 0.00292969 9.85727 0.00292969 9.72005C0.00292969 9.58283 0.0605686 9.45651 0.175846 9.34109L8.42439 1.08463H1.24001C1.08654 1.08463 0.95786 1.03311 0.853971 0.930051C0.750221 0.826996 0.698346 0.699357 0.698346 0.547134C0.698346 0.394773 0.750221 0.265745 0.853971 0.160051C0.95786 0.0542174 1.08654 0.00130081 1.24001 0.00130081H9.61168C9.80154 0.00130081 9.96064 0.0654673 10.089 0.193801C10.2174 0.322273 10.2817 0.481371 10.2817 0.671093V9.04297C10.2817 9.19644 10.2302 9.32505 10.1271 9.4288C10.024 9.53269 9.8964 9.58463 9.74418 9.58463C9.59182 9.58463 9.46272 9.53269 9.35689 9.4288C9.25119 9.32505 9.19835 9.19644 9.19835 9.04297V1.85859Z" fill="#3DCFB6"/>
</svg>
