<svg width="32" height="32" viewBox="0 0 32 32" fill="none" xmlns="http://www.w3.org/2000/svg">
<g clip-path="url(#clip0_6278_774)">
<mask id="mask0_6278_774" style="mask-type:alpha" maskUnits="userSpaceOnUse" x="0" y="0" width="32" height="32">
<rect width="32" height="32" fill="#D9D9D9"/>
</mask>
<g mask="url(#mask0_6278_774)">
<path d="M5.33332 26.6667C4.59999 26.6667 3.97221 26.4056 3.44999 25.8834C2.92777 25.3612 2.66666 24.7334 2.66666 24V8.00004C2.66666 7.26671 2.92777 6.63893 3.44999 6.11671C3.97221 5.59449 4.59999 5.33337 5.33332 5.33337H26.6667C27.4 5.33337 28.0278 5.59449 28.55 6.11671C29.0722 6.63893 29.3333 7.26671 29.3333 8.00004V24C29.3333 24.7334 29.0722 25.3612 28.55 25.8834C28.0278 26.4056 27.4 26.6667 26.6667 26.6667H5.33332ZM16 17.1C16.1111 17.1 16.2278 17.0834 16.35 17.05C16.4722 17.0167 16.5889 16.9667 16.7 16.9L26.1333 11C26.3111 10.8889 26.4444 10.75 26.5333 10.5834C26.6222 10.4167 26.6667 10.2334 26.6667 10.0334C26.6667 9.58893 26.4778 9.2556 26.1 9.03337C25.7222 8.81115 25.3333 8.82226 24.9333 9.06671L16 14.6667L7.06666 9.06671C6.66666 8.82226 6.27777 8.81671 5.89999 9.05004C5.52221 9.28337 5.33332 9.61115 5.33332 10.0334C5.33332 10.2556 5.37777 10.45 5.46666 10.6167C5.55555 10.7834 5.68888 10.9112 5.86666 11L15.3 16.9C15.4111 16.9667 15.5278 17.0167 15.65 17.05C15.7722 17.0834 15.8889 17.1 16 17.1Z" fill="#3DCFB6"/>
</g>
</g>
<defs>
<clipPath id="clip0_6278_774">
<rect width="32" height="32" fill="white"/>
</clipPath>
</defs>
</svg>
